<svg width="24" height="24" viewBox="0 0 24 24" fill="none" xmlns="http://www.w3.org/2000/svg">
<path d="M12 1.99997C10.6864 1.99866 9.38546 2.25642 8.17162 2.7585C6.95777 3.26058 5.85485 3.99712 4.926 4.92597C3.99716 5.85482 3.26061 6.95773 2.75853 8.17158C2.25645 9.38543 1.99869 10.6864 2.00001 12V12.2C2.04001 14.1606 2.6553 16.0662 3.76939 17.68C4.88348 19.2937 6.44726 20.5445 8.26636 21.2769C10.0855 22.0093 12.0797 22.1909 14.0012 21.7993C15.9227 21.4076 17.6867 20.4599 19.074 19.074C20.4737 17.6754 21.4271 15.8931 21.8134 13.9525C22.1997 12.0119 22.0017 10.0003 21.2443 8.17234C20.487 6.34436 19.2043 4.78214 17.5588 3.68341C15.9132 2.58467 13.9787 1.99881 12 1.99997V1.99997ZM12 10.59L14.59 7.99997L16 9.40997L13.41 12L16 14.59L14.59 16L12 13.41L9.41001 16L8.00001 14.59L10.59 12L8.00001 9.40997L9.41001 7.99997L12 10.589V10.59Z" fill="black"/>
</svg>
